<svg xmlns="http://www.w3.org/2000/svg" width="100" height="25" fill="currentColor" class="dk dk-circle" viewBox="0 0 100 25">
	<path d="M12.444,8.788c0,3.402-1.051,6.306-4.038,10.648c-1.438,2.102-4.397,5.004-6.969,5.004C0.553,24.439,0,24.107,0,23.445	V6.631c0-0.664,0.47-0.996,1.438-0.996h6.471C10.757,5.635,12.444,6.382,12.444,8.788z M6.194,6.437H3.982	c-0.443,0-0.747,0.055-0.913,0.167C2.821,6.741,2.71,7.045,2.71,7.488v15.818c1.272-0.277,3.374-2.877,4.535-4.979	c1.272-2.35,1.936-4.59,1.936-7.66C9.181,7.571,7.826,6.437,6.194,6.437z" />
	<path d="M23.146,24.439c-1.438,0-1.797-0.139-2.461-0.967c-0.415-0.498-2.268-2.766-2.544-3.152	c-0.996-1.355-1.383-2.295-0.304-2.904c3.65-2.02,3.069-3.65,3.014-3.871c-0.249-0.968-1.189-1.19-2.378-1.19	c-0.028,0-0.608,0-0.608,0c-0.359,0-0.608,0.028-0.747,0.111c-0.193,0.083-0.249,0.304-0.249,0.608v8.545	c0,1.715-1.576,2.82-2.295,2.82c-0.525,0-0.442-0.994-0.442-0.994V12.66c0-0.719,0.581-0.94,1.382-0.94h4.231	c2.903,0,3.706,0.829,3.706,2.019c0,0.912-0.664,1.715-2.655,2.875c-0.581,0.332-0.885,0.525-1.328,0.775	c-0.525,0.275,0.138,1.105,0.304,1.326c0.277,0.359,2.378,2.795,3.291,3.844C23.562,23.141,25.055,24.439,23.146,24.439z" />
	<path d="M37.776,24.412h-2.102c-0.415,0-0.719-0.248-0.94-0.803l-0.747-1.658c0,0-1.217,1.189-2.987,1.77	c-2.517,0.857-4.258,0.691-5.005,0.691c-0.525,0-0.774-0.166-0.774-0.498c0-0.305,0.498-1.465,1.521-3.539	c0.415-0.885,2.848-5.393,3.374-6.305c0.47-0.83-0.581-1.494-1.244-1.577c-0.443-0.083-0.664-0.249-0.664-0.442	c0-0.222,1.466-0.332,2.766-0.332c0.913,0,1.908,0.387,2.461,1.382c1.853,3.457,4.784,11.035,4.784,11.063	C38.219,24.33,38.081,24.412,37.776,24.412z M28.319,22.199c0,0,1.134,0.555,2.876,0.084c1.797-0.471,2.434-1.189,2.434-1.189	l-2.849-6.359C30.089,16.115,28.955,19.711,28.319,22.199z" />
	<path d="M39.906,8.345c0-1.659,1.549-2.71,2.24-2.71c0.498,0,0.443,0.968,0.443,0.968v15.1c0,1.658-1.576,2.736-2.24,2.736	c-0.525,0-0.442-0.967-0.442-0.967V8.345z M49.696,24.164c-0.387,0.332-1.466,0.414-2.046-0.057	c-0.553-0.469-3.097-2.875-3.595-3.373c-1.134-1.162-1.162-2.074-1.162-2.654c0-0.719,0.636-1.908,1.465-2.959	c1.853-2.268,3.181-3.402,3.982-3.402c0.47,0,1.051,0.276,1.3,0.802c0.304,0.608,0.249,1.715-0.055,2.047	c-0.636,0.691-1.521-0.471-1.521-0.471c-0.636-0.746-1.576-0.25-2.517,0.83c-0.747,0.855-0.996,1.217-1.023,1.658	c-0.083,0.996,0.968,1.965,2.406,3.318c0.636,0.582,2.793,2.545,3.291,2.959C50.719,23.307,50.055,23.832,49.696,24.164z" />
	<path d="M52.103,8.345c0-1.659,1.548-2.71,2.239-2.71c0.498,0,0.442,0.968,0.442,0.968v15.1c0,1.658-1.576,2.736-2.24,2.736	c-0.525,0-0.441-0.967-0.441-0.967V8.345z M61.892,24.164c-0.388,0.332-1.466,0.414-2.046-0.057	c-0.554-0.469-3.098-2.875-3.596-3.373c-1.134-1.162-1.161-2.074-1.161-2.654c0-0.719,0.636-1.908,1.466-2.959	c1.853-2.268,3.18-3.402,3.981-3.402c0.471,0,1.051,0.276,1.3,0.802c0.305,0.608,0.249,1.715-0.055,2.047	c-0.637,0.691-1.521-0.471-1.521-0.471c-0.636-0.746-1.576-0.25-2.517,0.83c-0.746,0.855-0.995,1.217-1.022,1.658	c-0.083,0.996,0.968,1.965,2.405,3.318c0.636,0.582,2.793,2.545,3.291,2.959C62.915,23.307,62.251,23.832,61.892,24.164z" />
	<path d="M76.272,24.412h-2.102c-0.415,0-0.72-0.248-0.94-0.803l-0.747-1.658c0,0-1.217,1.189-2.986,1.77	c-2.517,0.857-4.259,0.691-5.006,0.691c-0.525,0-0.774-0.166-0.774-0.498c0-0.305,0.498-1.465,1.521-3.539	c0.414-0.885,2.849-5.393,3.374-6.305c0.47-0.83-0.581-1.494-1.245-1.577c-0.441-0.083-0.663-0.249-0.663-0.442	c0-0.222,1.466-0.332,2.766-0.332c0.912,0,1.907,0.387,2.461,1.382c1.853,3.457,4.784,11.035,4.784,11.063	C76.715,24.33,76.576,24.412,76.272,24.412z M66.814,22.199c0,0,1.134,0.555,2.876,0.084c1.798-0.471,2.434-1.189,2.434-1.189	l-2.849-6.359C68.584,16.115,67.45,19.711,66.814,22.199z" />
	<path d="M87.693,24.439c-1.438,0-1.797-0.139-2.461-0.967c-0.415-0.498-2.268-2.766-2.544-3.152	c-0.996-1.355-1.383-2.295-0.305-2.904c3.65-2.02,3.07-3.65,3.015-3.871c-0.249-0.968-1.189-1.19-2.378-1.19	c-0.028,0-0.609,0-0.609,0c-0.359,0-0.607,0.028-0.746,0.111c-0.193,0.083-0.249,0.304-0.249,0.608v8.545	c0,1.715-1.576,2.82-2.295,2.82c-0.525,0-0.442-0.994-0.442-0.994V12.66c0-0.719,0.58-0.94,1.383-0.94h4.23	c2.903,0,3.706,0.829,3.706,2.019c0,0.912-0.664,1.715-2.654,2.875c-0.582,0.332-0.886,0.525-1.328,0.775	c-0.525,0.275,0.139,1.105,0.304,1.326c0.277,0.359,2.379,2.795,3.291,3.844C88.108,23.141,89.602,24.439,87.693,24.439z" />
	<path d="M100,13.129c0,1.826-0.193,2.461-0.553,2.461c-0.222,0-0.525-0.525-0.803-1.078c-0.663-1.438-1.188-2.046-2.378-2.046	c-0.027,0-0.083,0-0.166,0v7.329c0,1.16-0.055,2.93,0.415,3.566c0.305,0.443,0.747,1.078-0.166,1.078	c-2.046,0-2.959-1.549-2.959-3.373v-8.601c-0.083,0-0.138,0-0.166,0c-1.188,0-1.742,0.608-2.378,2.046	c-0.276,0.553-0.581,1.078-0.802,1.078c-0.359,0-0.554-0.635-0.554-2.461c0-0.469,0.083-0.829,0.222-1.022	c0.166-0.221,0.553-0.36,1.106-0.36h2.571v-1.41c0-1.687,1.549-2.766,2.268-2.766c0.471,0,0.442,0.968,0.442,0.968v3.069v0.138	h2.572c0.553,0,0.94,0.139,1.106,0.36C99.917,12.3,100,12.66,100,13.129z" />
	<path d="M2.632,0.561l0.033,0.707H2.582C2.565,1.143,2.543,1.054,2.515,1c-0.046-0.085-0.107-0.149-0.183-0.19	C2.255,0.77,2.155,0.75,2.03,0.75H1.606v2.302c0,0.185,0.02,0.301,0.06,0.347c0.057,0.062,0.143,0.093,0.26,0.093H2.03v0.082H0.753	V3.491H0.86c0.127,0,0.217-0.039,0.271-0.116C1.163,3.328,1.18,3.22,1.18,3.051V0.75H0.817c-0.141,0-0.241,0.011-0.3,0.031	C0.44,0.809,0.375,0.863,0.32,0.943S0.232,1.131,0.222,1.267H0.138l0.036-0.707H2.632z" />
	<path d="M4.533,1.958h1.4V1.096c0-0.154-0.01-0.256-0.029-0.304C5.889,0.755,5.858,0.723,5.811,0.696	C5.747,0.661,5.68,0.643,5.608,0.643H5.502V0.561h1.289v0.083H6.684c-0.071,0-0.138,0.017-0.202,0.051	c-0.047,0.024-0.08,0.06-0.097,0.108S6.359,0.948,6.359,1.096V3.04c0,0.152,0.01,0.253,0.029,0.302	c0.015,0.037,0.045,0.069,0.091,0.096c0.065,0.036,0.133,0.053,0.204,0.053h0.107v0.082H5.502V3.491h0.106	c0.123,0,0.212-0.037,0.269-0.109C5.914,3.334,5.933,3.221,5.933,3.04V2.123h-1.4V3.04c0,0.152,0.01,0.253,0.029,0.302	c0.015,0.037,0.046,0.069,0.093,0.096c0.064,0.036,0.131,0.053,0.202,0.053h0.109v0.082H3.676V3.491h0.106	c0.125,0,0.215-0.037,0.271-0.109C4.089,3.334,4.107,3.221,4.107,3.04V1.096c0-0.154-0.01-0.256-0.029-0.304	C4.063,0.755,4.033,0.723,3.987,0.696C3.922,0.661,3.854,0.643,3.782,0.643H3.676V0.561h1.291v0.083H4.857	c-0.071,0-0.138,0.017-0.202,0.051C4.61,0.718,4.578,0.753,4.56,0.802S4.533,0.948,4.533,1.096V1.958z" />
	<path d="M8.653,0.725v1.191h0.662c0.172,0,0.287-0.026,0.344-0.078C9.737,1.77,9.78,1.65,9.789,1.479h0.082v1.048H9.789	C9.768,2.38,9.747,2.287,9.727,2.245C9.7,2.193,9.656,2.152,9.595,2.123c-0.061-0.03-0.154-0.044-0.28-0.044H8.653v0.993	c0,0.133,0.006,0.214,0.018,0.243c0.012,0.029,0.032,0.052,0.062,0.068C8.763,3.4,8.819,3.409,8.902,3.409h0.511	c0.17,0,0.294-0.012,0.371-0.035c0.077-0.024,0.151-0.071,0.222-0.14c0.092-0.092,0.186-0.23,0.282-0.416h0.089l-0.26,0.755H7.796	V3.491h0.106c0.071,0,0.139-0.017,0.202-0.051c0.048-0.024,0.08-0.059,0.097-0.106s0.026-0.145,0.026-0.291V1.085	c0-0.191-0.02-0.309-0.058-0.354c-0.053-0.06-0.142-0.089-0.267-0.089H7.796V0.561h2.321l0.034,0.66h-0.086	C10.033,1.062,9.999,0.953,9.96,0.894C9.923,0.835,9.867,0.79,9.793,0.759C9.734,0.736,9.629,0.725,9.48,0.725H8.653z" />
</svg>
